<svg width="21" height="30" viewBox="0 0 21 30" fill="none" xmlns="http://www.w3.org/2000/svg">
<path d="M16.7696 21.1735C16.4474 21.1389 16.1592 21.3722 16.1249 21.6939L15.3637 28.8281H4.85852L4.10764 21.7898C4.0733 21.468 3.78473 21.2347 3.46287 21.2694C3.14108 21.3037 2.90811 21.5924 2.94244 21.9141L3.74922 29.4762C3.78098 29.7741 4.03229 30 4.33182 30H15.8905C16.19 30 16.4413 29.7741 16.4731 29.4762L17.2901 21.8183C17.3244 21.4965 17.0914 21.2078 16.7696 21.1735Z" fill="#D8D8D8"/>
<path d="M19.4856 4.17715H18.1746L17.1424 1.63951C17.0526 1.41873 16.838 1.27436 16.5997 1.27436H13.0047L11.9979 0.187734C11.887 0.0680273 11.7313 0 11.5681 0H8.65411C8.49093 0 8.33518 0.0680273 8.22433 0.187734L7.21757 1.27436H3.62261C3.38425 1.27436 3.16968 1.41873 3.07985 1.63951L2.04761 4.17715H0.736572C0.412959 4.17715 0.150635 4.43947 0.150635 4.76309V7.28104C0.150635 7.60465 0.412959 7.86697 0.736572 7.86697H1.44368L2.17927 14.7616C2.2136 15.0834 2.50218 15.3166 2.82403 15.2821C3.14583 15.2477 3.3788 14.959 3.34446 14.6373L2.62212 7.86697H17.6L16.8752 14.6598C16.8409 14.9816 17.0739 15.2702 17.3957 15.3046C17.4168 15.3069 17.4378 15.308 17.4585 15.308C17.7542 15.308 18.0084 15.0848 18.0404 14.7841L18.7784 7.86697H19.4855C19.8091 7.86697 20.0715 7.60465 20.0715 7.28104V4.76309C20.0716 4.43947 19.8092 4.17715 19.4856 4.17715ZM4.01677 2.44623H7.47345C7.63663 2.44623 7.79237 2.3782 7.90323 2.2585L8.90999 1.17188H11.3122L12.319 2.2585C12.4299 2.37814 12.5856 2.44623 12.7488 2.44623H16.2054L16.9095 4.17715H3.3127L4.01677 2.44623ZM18.8997 6.6951H1.32251V5.34902H18.8997V6.6951Z" fill="#D8D8D8"/>
<path d="M1.14124 12.8271L2.30959 23.7779H17.9126L19.081 12.8271H1.14124ZM10.1111 20.5038C8.92026 20.5038 7.95487 19.5384 7.95487 18.3475C7.95487 17.1567 8.92026 16.1913 10.1111 16.1913C11.302 16.1913 12.2674 17.1567 12.2674 18.3475C12.2674 19.5384 11.302 20.5038 10.1111 20.5038Z" fill="#D8D8D8"/>
<path d="M10.1111 21.0897C8.59902 21.0897 7.3689 19.8596 7.3689 18.3475C7.3689 16.8355 8.59902 15.6053 10.1111 15.6053C11.6232 15.6053 12.8533 16.8355 12.8533 18.3475C12.8533 19.8596 11.6232 21.0897 10.1111 21.0897ZM10.1111 16.7773C9.24525 16.7773 8.54077 17.4817 8.54077 18.3476C8.54077 19.2135 9.24519 19.9179 10.1111 19.9179C10.977 19.9179 11.6814 19.2135 11.6814 18.3476C11.6814 17.4817 10.9769 16.7773 10.1111 16.7773Z" fill="#D8D8D8"/>
</svg>
