<svg width="20" height="30" viewBox="0 0 20 30" fill="none" xmlns="http://www.w3.org/2000/svg">
<path d="M16.6585 21.1735C16.3362 21.1389 16.0481 21.3722 16.0137 21.6939L15.2526 28.8281H4.7474L3.99652 21.7898C3.96219 21.468 3.67361 21.2347 3.35176 21.2694C3.02996 21.3037 2.79699 21.5924 2.83133 21.9141L3.63811 29.4762C3.66986 29.7741 3.92117 30 4.2207 30H15.7794C16.0789 30 16.3302 29.7741 16.362 29.4762L17.179 21.8183C17.2133 21.4965 16.9803 21.2078 16.6585 21.1735Z" fill="#324A59"/>
<path d="M19.3745 4.17715H18.0635L17.0313 1.63951C16.9415 1.41873 16.7269 1.27436 16.4885 1.27436H12.8936L11.8868 0.187734C11.7759 0.0680273 11.6202 0 11.457 0H8.543C8.37981 0 8.22407 0.0680273 8.11321 0.187734L7.10645 1.27436H3.51149C3.27313 1.27436 3.05856 1.41873 2.96874 1.63951L1.93649 4.17715H0.625458C0.301844 4.17715 0.0395203 4.43947 0.0395203 4.76309V7.28104C0.0395203 7.60465 0.301844 7.86697 0.625458 7.86697H1.33257L2.06815 14.7616C2.10249 15.0834 2.39106 15.3166 2.71292 15.2821C3.03472 15.2477 3.26768 14.959 3.23335 14.6373L2.511 7.86697H17.4889L16.7641 14.6598C16.7298 14.9816 16.9628 15.2702 17.2845 15.3046C17.3057 15.3069 17.3267 15.308 17.3474 15.308C17.6431 15.308 17.8973 15.0848 17.9293 14.7841L18.6673 7.86697H19.3744C19.698 7.86697 19.9603 7.60465 19.9603 7.28104V4.76309C19.9605 4.43947 19.6981 4.17715 19.3745 4.17715ZM3.90565 2.44623H7.36233C7.52552 2.44623 7.68126 2.3782 7.79212 2.2585L8.79888 1.17188H11.2011L12.2079 2.2585C12.3188 2.37814 12.4745 2.44623 12.6376 2.44623H16.0943L16.7984 4.17715H3.20159L3.90565 2.44623ZM18.7886 6.6951H1.2114V5.34902H18.7886V6.6951Z" fill="#324A59"/>
<path d="M1.03009 12.8271L2.19845 23.7779H17.8015L18.9699 12.8271H1.03009ZM9.99998 20.5038C8.80912 20.5038 7.84372 19.5384 7.84372 18.3475C7.84372 17.1567 8.80912 16.1913 9.99998 16.1913C11.1908 16.1913 12.1562 17.1567 12.1562 18.3475C12.1562 19.5384 11.1908 20.5038 9.99998 20.5038Z" fill="#E4D5C9"/>
<path d="M9.99997 21.0897C8.4879 21.0897 7.25778 19.8596 7.25778 18.3475C7.25778 16.8355 8.4879 15.6053 9.99997 15.6053C11.512 15.6053 12.7422 16.8355 12.7422 18.3475C12.7422 19.8596 11.512 21.0897 9.99997 21.0897ZM9.99997 16.7773C9.13413 16.7773 8.42966 17.4817 8.42966 18.3476C8.42966 19.2135 9.13407 19.9179 9.99997 19.9179C10.8659 19.9179 11.5703 19.2135 11.5703 18.3476C11.5703 17.4817 10.8658 16.7773 9.99997 16.7773Z" fill="#324A59"/>
</svg>
