<svg width="22" height="22" viewBox="0 0 22 22" fill="none" xmlns="http://www.w3.org/2000/svg">
<path d="M0.979248 1.52073L3.23258 1.91073L4.27583 14.3398C4.35925 15.3549 5.2075 16.1338 6.22583 16.1306H18.0439C19.0157 16.1327 19.8401 15.4177 19.9777 14.4557L21.0058 7.35123C21.1206 6.55715 20.5692 5.82048 19.7762 5.70565C19.7068 5.6959 3.59442 5.69048 3.59442 5.69048" stroke="#001833" stroke-width="1.5" stroke-linecap="round" stroke-linejoin="round"/>
<path d="M13.3022 9.69437H16.3063" stroke="#001833" stroke-width="1.5" stroke-linecap="round" stroke-linejoin="round"/>
<path fill-rule="evenodd" clip-rule="evenodd" d="M5.75059 19.886C6.07667 19.886 6.33992 20.1504 6.33992 20.4754C6.33992 20.8015 6.07667 21.0658 5.75059 21.0658C5.4245 21.0658 5.16125 20.8015 5.16125 20.4754C5.16125 20.1504 5.4245 19.886 5.75059 19.886Z" fill="#001833" stroke="#001833" stroke-width="1.5" stroke-linecap="round" stroke-linejoin="round"/>
<path fill-rule="evenodd" clip-rule="evenodd" d="M17.9709 19.886C18.297 19.886 18.5613 20.1504 18.5613 20.4754C18.5613 20.8015 18.297 21.0658 17.9709 21.0658C17.6448 21.0658 17.3816 20.8015 17.3816 20.4754C17.3816 20.1504 17.6448 19.886 17.9709 19.886Z" fill="#001833" stroke="#001833" stroke-width="1.5" stroke-linecap="round" stroke-linejoin="round"/>
</svg>
