<svg width="20" height="19" viewBox="0 0 20 19" fill="none" xmlns="http://www.w3.org/2000/svg">
<path fill-rule="evenodd" clip-rule="evenodd" d="M18.7508 18.9397H11.4978C11.0838 18.9397 10.7478 18.6037 10.7478 18.1897C10.7478 17.7757 11.0838 17.4397 11.4978 17.4397H18.7508C19.1648 17.4397 19.5008 17.7757 19.5008 18.1897C19.5008 18.6037 19.1648 18.9397 18.7508 18.9397Z" fill="#324A59"/>
<mask id="mask0_140_11" style="mask-type:luminance" maskUnits="userSpaceOnUse" x="0" y="0" width="18" height="19">
<path fill-rule="evenodd" clip-rule="evenodd" d="M0.000244141 0.000160217H17.1808V18.9397H0.000244141V0.000160217Z" fill="white"/>
</mask>
<g mask="url(#mask0_140_11)">
<path fill-rule="evenodd" clip-rule="evenodd" d="M11.1105 2.0168L1.69552 13.7918C1.52452 14.0058 1.46152 14.2818 1.52452 14.5468L2.20552 17.4318L5.24452 17.3938C5.53352 17.3908 5.80052 17.2618 5.97752 17.0418C9.19452 13.0168 15.3275 5.3428 15.5015 5.1178C15.6655 4.8518 15.7295 4.4758 15.6435 4.1138C15.5555 3.7428 15.3245 3.4278 14.9915 3.2268C14.9205 3.1778 13.2355 1.8698 13.1835 1.8288C12.5495 1.3208 11.6245 1.4088 11.1105 2.0168ZM1.61352 18.9398C1.26652 18.9398 0.964518 18.7018 0.883518 18.3628L0.0645184 14.8918C-0.104482 14.1728 0.0635184 13.4308 0.524518 12.8548L9.94452 1.0728C9.94852 1.0688 9.95152 1.0638 9.95552 1.0598C10.9885 -0.175197 12.8565 -0.357197 14.1165 0.653803C14.1665 0.692803 15.8395 1.9928 15.8395 1.9928C16.4475 2.3548 16.9225 3.0018 17.1025 3.7678C17.2815 4.5258 17.1515 5.3078 16.7345 5.9688C16.7035 6.0178 16.6765 6.0598 7.14852 17.9798C6.68952 18.5518 6.00152 18.8848 5.26252 18.8938L1.62352 18.9398H1.61352Z" fill="#324A59"/>
</g>
<path fill-rule="evenodd" clip-rule="evenodd" d="M14.2234 8.68481C14.0634 8.68481 13.9034 8.63381 13.7664 8.52981L8.31442 4.34181C7.98642 4.08981 7.92442 3.61981 8.17642 3.28981C8.42942 2.96181 8.89942 2.90081 9.22842 3.15281L14.6814 7.33981C15.0094 7.59181 15.0714 8.06281 14.8184 8.39181C14.6714 8.58381 14.4484 8.68481 14.2234 8.68481Z" fill="#324A59"/>
</svg>
