<svg width="18" height="22" viewBox="0 0 18 22" fill="none" xmlns="http://www.w3.org/2000/svg">
<mask id="mask0_0_200" style="mask-type:luminance" maskUnits="userSpaceOnUse" x="0" y="13" width="18" height="9">
<path fill-rule="evenodd" clip-rule="evenodd" d="M0.333313 13.7041H17.4932V21.6926H0.333313V13.7041Z" fill="white"/>
</mask>
<g mask="url(#mask0_0_200)">
<path fill-rule="evenodd" clip-rule="evenodd" d="M8.91428 15.3291C4.29819 15.3291 1.95819 16.1221 1.95819 17.6875C1.95819 19.267 4.29819 20.0676 8.91428 20.0676C13.5293 20.0676 15.8682 19.2746 15.8682 17.7092C15.8682 16.1297 13.5293 15.3291 8.91428 15.3291ZM8.91427 21.6926C6.79202 21.6926 0.333191 21.6926 0.333191 17.6875C0.333191 14.1169 5.23094 13.7041 8.91427 13.7041C11.0365 13.7041 17.4932 13.7041 17.4932 17.7092C17.4932 21.2799 12.5965 21.6926 8.91427 21.6926Z" fill="#001833"/>
</g>
<mask id="mask1_0_200" style="mask-type:luminance" maskUnits="userSpaceOnUse" x="3" y="0" width="12" height="12">
<path fill-rule="evenodd" clip-rule="evenodd" d="M3.16064 0.166779H14.6657V11.6703H3.16064V0.166779Z" fill="white"/>
</mask>
<g mask="url(#mask1_0_200)">
<path fill-rule="evenodd" clip-rule="evenodd" d="M8.91426 1.71331C6.59485 1.71331 4.70768 3.59939 4.70768 5.91881C4.7001 8.23064 6.57318 10.1156 8.88285 10.1243L8.91426 10.8978V10.1243C11.2326 10.1243 13.1187 8.23714 13.1187 5.91881C13.1187 3.59939 11.2326 1.71331 8.91426 1.71331ZM8.91426 11.6702H8.8796C5.7141 11.6605 3.14985 9.07889 3.16068 5.91556C3.16068 2.74681 5.74118 0.166306 8.91426 0.166306C12.0863 0.166306 14.6657 2.74681 14.6657 5.91881C14.6657 9.09081 12.0863 11.6702 8.91426 11.6702Z" fill="#001833"/>
</g>
</svg>
